<svg id="Fill_out_line" height="512" viewBox="0 0 512 512" width="512" xmlns="http://www.w3.org/2000/svg" data-name="Fill out line"><path d="m424 360h48v128h-48z" fill="#e44b4d" transform="matrix(-1 0 0 -1 896 848)"/><path d="m328 320h48v168h-48z" fill="#eb6d3b"/><path d="m232 280h48v208h-48z" fill="#efa702" transform="matrix(-1 0 0 -1 512 768)"/><path d="m136 240h48v248h-48z" fill="#4ba477"/><path d="m40 168h48v320h-48z" fill="#396795" transform="matrix(-1 0 0 -1 128 656)"/><path d="m473.62012 265.48-35.73 62.52-27.78028-15.88 18.42016-32.23a464.84944 464.84944 0 0 1 -394.54-240.1l28.02-15.46a432.85256 432.85256 0 0 0 370.86988 223.65l-15.85986-42.3 29.96-11.24z" fill="#e44b4d"/><g fill="#eedc9a"><path d="m144 392-40 40a11.29853 11.29853 0 0 0 0 16 11.31063 11.31063 0 0 1 0 16l-8 8a11.31074 11.31074 0 0 1 -16 0l-8-8a11.29853 11.29853 0 0 1 0-16 11.31074 11.31074 0 0 1 -16 0l-8-8a11.31063 11.31063 0 0 1 0-16l8-8a11.29839 11.29839 0 0 1 16 0 11.31074 11.31074 0 0 0 16 0l40-40a11.31371 11.31371 0 0 1 16 16z"/><path d="m264 304-8 8a11.29839 11.29839 0 0 1 -16 0 11.31074 11.31074 0 0 0 -16 0l-40 40a11.31371 11.31371 0 0 1 -16-16l31.04-31.04 8.96-8.96a11.29853 11.29853 0 0 0 0-16 11.31063 11.31063 0 0 1 0-16l8-8a11.31074 11.31074 0 0 1 16 0l8 8a11.29853 11.29853 0 0 1 0 16 11.31074 11.31074 0 0 1 16 0l8 8a11.31074 11.31074 0 0 1 0 16z"/><path d="m147.32 344a11.32 11.32 0 0 1 -19.32 8l-39.5-39.5a11.29839 11.29839 0 0 0 -16 0 11.31074 11.31074 0 0 1 -16 0l-8-8a11.31063 11.31063 0 0 1 0-16l8-8a11.29839 11.29839 0 0 1 16 0 11.31063 11.31063 0 0 1 0-16l8-8a11.31074 11.31074 0 0 1 16 0l8 8a11.29853 11.29853 0 0 1 0 16 11.31063 11.31063 0 0 0 0 16l8.46 8.46 31.04 31.04a11.275 11.275 0 0 1 3.32 8z"/><path d="m263.5 439.5-8 8a11.29839 11.29839 0 0 1 -16 0 11.31063 11.31063 0 0 1 0 16l-8 8a11.31074 11.31074 0 0 1 -16 0l-8-8a11.29853 11.29853 0 0 1 0-16 11.31063 11.31063 0 0 0 0-16l-39.5-39.5a11.31371 11.31371 0 0 1 16-16l39.5 39.5a11.29839 11.29839 0 0 0 16 0 11.31074 11.31074 0 0 1 16 0l8 8a11.31074 11.31074 0 0 1 0 16z"/><path d="m232 360c0 21.33008-16.18 39.87012-40 49.33008v14.66992a16 16 0 0 1 -16 16h-40a16 16 0 0 1 -16-16v-14.66992c-23.82-9.46-40-28-40-49.33008 0-30.92993 34.03-56 76-56s76 25.07007 76 56z"/></g><circle cx="120" cy="360" fill="#395166" r="16"/><circle cx="192" cy="360" fill="#395166" r="16"/><path d="m472 352h-48a8.00008 8.00008 0 0 0 -8 8v128a8.00008 8.00008 0 0 0 8 8h48a8.00008 8.00008 0 0 0 8-8v-128a8.00008 8.00008 0 0 0 -8-8zm-8 128h-32v-112h32z"/><path d="m376 312h-48a8.00008 8.00008 0 0 0 -8 8v168a8.00008 8.00008 0 0 0 8 8h48a8.00008 8.00008 0 0 0 8-8v-168a8.00008 8.00008 0 0 0 -8-8zm-8 168h-32v-152h32z"/><path d="m280 272h-21.20459a19.22556 19.22556 0 0 0 -7.71582-3.05957 19.18512 19.18512 0 0 0 -5.42285-10.59766l-8-8a19.33735 19.33735 0 0 0 -27.31348 0l-8 8a19.33583 19.33583 0 0 0 0 27.31446 3.29844 3.29844 0 0 1 0 4.68554l-10.34326 10.34302v-60.68579a8.00008 8.00008 0 0 0 -8-8h-48a8.00008 8.00008 0 0 0 -8 8v59.60889q-3.537.94446-6.947 2.12988l-11.3963-11.396a3.31011 3.31011 0 0 1 0-4.68554 19.2996 19.2996 0 0 0 0-27.31446l-8-8a19.17755 19.17755 0 0 0 -5.6567-3.89746v-78.44531a8.00008 8.00008 0 0 0 -8-8h-48a8.00008 8.00008 0 0 0 -8 8v320a8.00008 8.00008 0 0 0 8 8h48a8.00008 8.00008 0 0 0 8-8v-6.44507a19.18291 19.18291 0 0 0 5.65674-3.8977l8-8a19.3359 19.3359 0 0 0 0-27.31446 3.29844 3.29844 0 0 1 0-4.68554l4.261-4.261a24.12555 24.12555 0 0 0 14.08226 13.22755v41.37622a8.00008 8.00008 0 0 0 8 8h48a8.00008 8.00008 0 0 0 8-8v-46.13086a24.10819 24.10819 0 0 0 6.08228-8.4729l4.261 4.261a3.31011 3.31011 0 0 1 0 4.68554 19.2996 19.2996 0 0 0 0 27.31446l8 8a19.41875 19.41875 0 0 0 13.625 5.666l.03172-.00024v4.677a8.00008 8.00008 0 0 0 8 8h48a8.00008 8.00008 0 0 0 8-8v-208a8.00008 8.00008 0 0 0 -8-8zm-56 132.26587-3.3158-3.31567q1.72852-1.58643 3.3158-3.25245zm-16.607 6.44113 10.95025 10.9502a19.1924 19.1924 0 0 0 13.65675 5.66311h.41992c.02014 0 .0398-.00293.05994-.00293h.00024a19.20115 19.20115 0 0 0 13.61023-5.67383 2.82764 2.82764 0 0 1 4.25293.01368l8 8a3.3166 3.3166 0 0 1 0 4.68554l-7.99951 8a2.82772 2.82772 0 0 1 -4.25342.01368l-.01025-.00977a8.14987 8.14987 0 1 0 -11.73682 11.31055 3.3166 3.3166 0 0 1 0 4.68554l-7.99951 8a2.83 2.83 0 0 1 -4.26709 0l-8-8a3.29911 3.29911 0 0 1 .00635-4.69238 19.35917 19.35917 0 0 0 -.00635-27.30762l-12.51-12.51q3.01406-1.47547 5.82634-3.12577zm62.68365 7.63574-8-8a19.19664 19.19664 0 0 0 -13.66943-5.66406c-.11328-.001-.22754-.001-.34082.00195-.09522.00171-.18824.01563-.28321.01856a19.47443 19.47443 0 0 0 -7.78319 1.75345v-84.88257a19.25 19.25 0 0 0 21.65674-3.91284l8-8a19.31558 19.31558 0 0 0 2.34326-2.85303v113.82519a19.27828 19.27828 0 0 0 -1.92334-2.28662zm-56.41992-144a3.3166 3.3166 0 0 1 0-4.68554l8-8a3.31129 3.31129 0 0 1 4.68652 0l8 8a3.29844 3.29844 0 0 1 0 4.68554 8.00018 8.00018 0 0 0 11.31348 11.31446 3.316 3.316 0 0 1 4.68652 0l8 8a3.3166 3.3166 0 0 1 0 4.68554l-8 8a3.29728 3.29728 0 0 1 -4.68652 0 19.33616 19.33616 0 0 0 -27.314.001l-6.06659 6.06714q-2.7864-1.91273-5.76153-3.61182l7.14209-7.14184a19.2996 19.2996 0 0 0 0-27.31446zm-69.65673-26.34274h32v49.80884a110.46648 110.46648 0 0 0 -20-1.80884 111.91944 111.91944 0 0 0 -12 .64526zm-44.68018 24a3.29836 3.29836 0 0 1 -.97656 2.34277 19.33583 19.33583 0 0 0 0 27.31446l7.14209 7.14184q-2.97061 1.70178-5.76141 3.61157l-6.0672-6.06787a19.29842 19.29842 0 0 0 -27.31348 0 3.316 3.316 0 0 1 -4.68652 0l-8-8a3.3166 3.3166 0 0 1 0-4.68554l8-8a3.29728 3.29728 0 0 1 4.68652 0 8.00018 8.00018 0 0 0 11.31348-11.31446 3.3166 3.3166 0 0 1 0-4.68554l8-8a3.31129 3.31129 0 0 1 4.68652 0l8 8a3.29836 3.29836 0 0 1 .97656 2.34277zm-51.31982 43.314 2.34326 2.34327a19.33735 19.33735 0 0 0 27.31348 0 3.2984 3.2984 0 0 1 2.34326-.97758v15.88086a50.96729 50.96729 0 0 0 0 54.82617v23.92773a3.299 3.299 0 0 1 -2.34326-.97168 19.29842 19.29842 0 0 0 -27.31348 0l-2.34326 2.34323zm32-139.314v70.44531a19.17755 19.17755 0 0 0 -5.65674 3.89746l-8 8a19.21335 19.21335 0 0 0 -5.40283 10.57715 19.18222 19.18222 0 0 0 -10.59717 5.42285l-2.34326 2.34323v-100.686zm-32 275.314 2.34326 2.34327a19.21255 19.21255 0 0 0 10.57715 5.40234 19.18512 19.18512 0 0 0 5.42285 10.59766l8 8a19.311 19.311 0 0 0 2.85274 2.34273h-29.196zm50.34326-24.97119a19.2996 19.2996 0 0 0 0 27.31446 3.3166 3.3166 0 0 1 0 4.68554l-8 8a3.31129 3.31129 0 0 1 -4.68652 0l-8-8a3.29844 3.29844 0 0 1 0-4.68554 8.00018 8.00018 0 0 0 -11.31348-11.31446 3.316 3.316 0 0 1 -4.68652 0l-8-8a3.3166 3.3166 0 0 1 0-4.68554l8-8a3.29728 3.29728 0 0 1 4.68652 0 19.31255 19.31255 0 0 0 27.31348 0l10.95026-10.95027q2.9425 1.726 6.10944 3.2627zm24.60938-24.44824c-21.55957-8.56157-34.95264-24.61527-34.95264-41.89457 0-26.46777 30.50488-48 68-48s68 21.53223 68 48c0 17.2793-13.39307 33.333-34.95264 41.89453a8.0011 8.0011 0 0 0 -5.04736 7.43555v14.66992a8.00917 8.00917 0 0 1 -8 8v-16h-16v16h-8v-16h-16v16a8.00917 8.00917 0 0 1 -8-8v-14.66992a8.0011 8.0011 0 0 0 -5.04736-7.43555zm53.04736 78.10543h-32v-32h32zm64 0v-4.26611l6.0835-6.0835a19.214 19.214 0 0 0 5.35693-10.56445 19.18762 19.18762 0 0 0 10.63623-5.42871l8.00635-8.00684a19.24684 19.24684 0 0 0 1.91699-2.27856v36.62817z"/><path d="m481.11084 262.67188-26.64014-71.041a7.99967 7.99967 0 0 0 -10.30078-4.68164l-29.96 11.24023a8 8 0 0 0 -4.68066 10.29883l11.66308 31.10742a425.33327 425.33327 0 0 1 -199.48334-60.50392 425.36634 425.36634 0 0 1 -152.69484-158.62696 7.9997 7.9997 0 0 0 -10.86916-3.13964l-28.01953 15.46a8.001 8.001 0 0 0 -3.14012 10.8691 473.49855 473.49855 0 0 0 168.36377 175.59277 473.57974 473.57974 0 0 0 219.70557 68.09863l-11.89063 20.80469a8.00047 8.00047 0 0 0 2.97559 10.915l27.78027 15.87988a7.99941 7.99941 0 0 0 10.916-2.97558l35.73-62.51953a8.00044 8.00044 0 0 0 .54492-6.77828zm-46.19678 54.41212-13.88916-7.93945 14.45117-25.28515a8.00009 8.00009 0 0 0 -6.73291-11.9668 457.44793 457.44793 0 0 1 -225.08252-66.3174 457.4934 457.4934 0 0 1 -158.73974-162.67969l14.01318-7.73145a441.4287 441.4287 0 0 0 154.5166 157.63184 441.31173 441.31173 0 0 0 219.28077 63.18359 8.00009 8.00009 0 0 0 7.63916-10.80761l-13.05176-34.81153 14.98-5.62012 22.51172 60.03223z"/><path d="m144 360a24 24 0 1 0 -24 24 24.02718 24.02718 0 0 0 24-24zm-24 8a8 8 0 1 1 8-8 8.00917 8.00917 0 0 1 -8 8z"/><path d="m192 384a24 24 0 1 0 -24-24 24.02718 24.02718 0 0 0 24 24zm0-32a8 8 0 1 1 -8 8 8.00917 8.00917 0 0 1 8-8z"/><path d="m137.26709 404.32031a7.99959 7.99959 0 0 0 6.73291 3.67969h24a8.00016 8.00016 0 0 0 7.03418-11.81055l-13-24a8.00022 8.00022 0 0 0 -14.30664.47754l-11 24a7.99807 7.99807 0 0 0 .53955 7.65332z"/></svg>